#!OML:ASF I:\Actors\actors\Patient Classification 2\Patient 1\Session 1\actor1.ASF
:FULLY-SPECIFIED
:DEGREES
260
root -0.670186 18.711 5.4492 2.15296 -3.09096 -1.65257
lowerback 5.2048 2.26987 -0.185536
upperback 0.422829 3.01963 0.279998
thorax -2.50432 1.5076 0.171512
lowerneck -9.07658 -8.28234 -9.01291
upperneck 32.5618 -11.7486 4.90704
head 13.3028 -5.69742 1.76647
rclavicle 3.82288e-014 9.93923e-017
rhumerus -38.7913 6.11582 -77.5258
rradius 89.1841
rwrist 25.2293
rhand -20.7557 -39.9598
rfingers 7.12502
rthumb 5.61017 -69.8655
lclavicle 3.82288e-014 9.93923e-017
lhumerus -25.7394 -31.7491 100.211
lradius 83.6634
lwrist -9.0137
lhand -12.4549 -23.4134
lfingers 7.12502
lthumb 13.6186 6.12117
rfemur 0 0 0
rtibia 0
rfoot 0 0
rtoes 0
lfemur -5.19838 -3.8756 -12.6155
ltibia 21.9221
lfoot -23.4437 16.8732
ltoes -54.9195
261
root -0.670068 18.7105 5.44968 2.15761 -3.21073 -1.65385
lowerback 5.21253 2.2469 -0.220929
upperback 0.411463 2.98814 0.321982
thorax -2.52422 1.49249 0.235967
lowerneck -9.41768 -8.04556 -8.50047
upperneck 32.7783 -11.366 4.50019
head 13.3636 -5.50822 1.57155
rclavicle -2.5842e-014 -3.27995e-015
rhumerus -37.9117 6.69218 -77.4808
rradius 89.0217
rwrist 25.4972
rhand -19.3047 -39.7878
rfingers 7.12502
rthumb 7.01099 -69.6517
lclavicle -2.5842e-014 -3.27995e-015
lhumerus -25.6662 -31.5206 99.9491
lradius 83.8841
lwrist -8.52503
lhand -11.1957 -22.673
lfingers 7.12502
lthumb 14.832 6.77616
rfemur 0 0 0
rtibia 0
rfoot 0 0
rtoes 0
lfemur -5.16985 -3.78673 -12.6186
ltibia 21.9173
lfoot -23.4854 16.8865
ltoes -54.9303
262
root -0.670077 18.7104 5.44944 2.18706 -3.27563 -1.64322
lowerback 5.21073 2.19171 -0.243397
upperback 0.382655 2.91426 0.352388
thorax -2.55504 1.45612 0.284467
lowerneck -9.74413 -7.72043 -7.9972
upperneck 33.0595 -10.9113 4.24558
head 13.4599 -5.27023 1.44889
rclavicle 6.71519e-015 -4.27387e-015
rhumerus -36.9875 7.53067 -77.5232
rradius 89.3372
rwrist 26.0105
rhand -15.7899 -40.5643
rfingers 7.12502
rthumb 10.4028 -70.287
lclavicle 6.71519e-015 -4.27387e-015
lhumerus -25.6669 -31.024 99.492
lradius 84.7005
lwrist -7.86222
lhand -9.362 -20.2171
lfingers 7.12502
lthumb 16.5979 9.09309
rfemur 0 0 0
rtibia 0
rfoot 0 0
rtoes 0
lfemur -5.18498 -3.76244 -12.6329
ltibia 21.9125
lfoot -23.5017 16.8933
ltoes -54.9198
263
root -0.669454 18.7107 5.44838 2.20619 -3.26104 -1.64172
lowerback 5.22947 2.09407 -0.212757
upperback 0.340435 2.78674 0.37331
thorax -2.6075 1.39239 0.296499
lowerneck -9.95077 -7.32007 -7.50591
upperneck 33.3084 -10.405 4.14774
head 13.5285 -4.99515 1.40253
rclavicle 1.30825e-014 9.44227e-015
rhumerus -36.0929 8.51335 -77.7206
rradius 89.9571
rwrist 27.1454
rhand -12.0323 -41.1897
rfingers 7.12502
rthumb 14.0259 -70.6964
lclavicle 1.30825e-014 9.44227e-015
lhumerus -25.7241 -30.1334 98.8607
lradius 86.0996
lwrist -7.62214
lhand -6.00071 -17.1146
lfingers 7.12502
lthumb 19.8317 11.8936
rfemur 0 0 0
rtibia 0
rfoot 0 0
rtoes 0
lfemur -5.20753 -3.82047 -12.637
ltibia 21.9067
lfoot -23.4964 16.9161
ltoes -54.8577
264
root -0.666996 18.7115 5.44664 2.2466 -3.2402 -1.66551
lowerback 5.19306 1.95016 -0.0813578
upperback 0.304143 2.60306 0.377591
thorax -2.61726 1.29947 0.241752
lowerneck -9.9886 -6.83731 -6.89994
upperneck 33.4223 -9.80204 4.03362
head 13.4892 -4.67119 1.35223
rclavicle -1.44243e-014 7.55382e-015
rhumerus -34.9802 9.25731 -77.8723
rradius 91.5091
rwrist 24.7075
rhand -5.74109 -44.3864
rfingers 7.12502
rthumb 20.0812 -73.3686
lclavicle -1.44243e-014 7.55382e-015
lhumerus -25.664 -28.7244 97.9975
lradius 88.3577
lwrist -6.85382
lhand 0.461762 -12.6038
lfingers 7.12502
lthumb 26.0326 15.6326
rfemur 0 0 0
rtibia 0
rfoot 0 0
rtoes 0
lfemur -5.24972 -3.91265 -12.6206
ltibia 21.8863
lfoot -23.5064 16.9607
ltoes -54.7758
265
root -0.665762 18.7125 5.44628 2.2968 -3.24089 -1.68455
lowerback 5.12347 1.79251 0.120549
upperback 0.299068 2.40286 0.309525
thorax -2.57096 1.19714 0.076193
lowerneck -10.0375 -6.30804 -5.95759
upperneck 33.4958 -9.13342 3.70006
head 13.4015 -4.30446 1.16693
rclavicle 3.33586e-014 -7.35503e-015
rhumerus -33.8999 10.1249 -78.3102
rradius 92.6597
rwrist 24.9471
rhand 0.810244 -47.8732
rfingers 7.12502
rthumb 26.3662 -76.0601
lclavicle 3.33586e-014 -7.35503e-015
lhumerus -25.3967 -27.1402 96.8301
lradius 90.7712
lwrist -6.58794
lhand 7.24301 -8.12938
lfingers 7.12502
lthumb 32.507 18.9736
rfemur 0 0 0
rtibia 0
rfoot 0 0
rtoes 0
lfemur -5.28098 -3.96969 -12.6006
ltibia 21.8453
lfoot -23.5456 16.9647
ltoes -54.7061
266
root -0.667393 18.7138 5.44765 2.29748 -3.26879 -1.66395
lowerback 5.0975 1.64565 0.272211
upperback 0.315671 2.21235 0.182122
thorax -2.52815 1.09997 -0.124382
lowerneck -10.1034 -5.75551 -4.85353
upperneck 33.6301 -8.47085 3.35391
head 13.3466 -3.92021 0.944344
rclavicle -6.68413e-015 -4.07509e-015
rhumerus -32.8402 10.9211 -78.8336
rradius 94.0558
rwrist 24.1304
rhand 2.92349 -50.1971
rfingers 7.12502
rthumb 28.3874 -78.0646
lclavicle -6.68413e-015 -4.07509e-015
lhumerus -24.9624 -25.629 95.3971
lradius 93.2382
lwrist -5.91634
lhand 14.0514 -3.90114
lfingers 7.12502
lthumb 38.958 21.6309
rfemur 0 0 0
rtibia 0
rfoot 0 0
rtoes 0
lfemur -5.23308 -3.98126 -12.6128
ltibia 21.7822
lfoot -23.5772 16.9568
ltoes -54.6415
267
root -0.670821 18.7144 5.45029 2.27893 -3.31833 -1.62195
lowerback 5.05737 1.52433 0.348492
upperback 0.340541 2.05175 0.0650985
thorax -2.47355 1.01873 -0.27401
lowerneck -10.0903 -5.23362 -3.99253
upperneck 33.7819 -7.88689 3.26006
head 13.3259 -3.56862 0.849116
rclavicle -4.72735e-014 8.34896e-015
rhumerus -31.9758 11.8981 -79.3556
rradius 95.5153
rwrist 23.528
rhand 3.57051 -51.2937
rfingers 7.12502
rthumb 29.0056 -79.0565
lclavicle -4.72735e-014 8.34896e-015
lhumerus -24.4728 -24.2418 93.8813
lradius 95.5551
lwrist -5.04716
lhand 19.7292 -0.457396
lfingers 7.12502
lthumb 44.2827 23.3192
rfemur 0 0 0
rtibia 0
rfoot 0 0
rtoes 0
lfemur -5.14222 -3.97247 -12.6466
ltibia 21.697
lfoot -23.5617 16.9944
ltoes -54.6221
268
root -0.6769 18.7145 5.45023 2.26724 -3.39957 -1.60952
lowerback 5.09642 1.46931 0.401689
upperback 0.335945 1.98003 0.00295127
thorax -2.49658 0.982008 -0.363723
lowerneck -10.0986 -4.81332 -3.42757
upperneck 33.9612 -7.43211 3.31338
head 13.3579 -3.28951 0.840336
rclavicle -1.68967e-015 -3.18055e-015
rhumerus -31.3469 12.9779 -79.7291
rradius 96.9786
rwrist 23.4202
rhand 1.01169 -50.184
rfingers 7.12502
rthumb 26.559 -78.3419
lclavicle -1.68967e-015 -3.18055e-015
lhumerus -24.0296 -23.0687 92.4812
lradius 97.5761
lwrist -4.40394
lhand 23.2282 1.7418
lfingers 7.12502
lthumb 47.5297 24.1711
rfemur 0 0 0
rtibia 0
rfoot 0 0
rtoes 0
lfemur -5.05515 -3.88146 -12.6379
ltibia 21.6019
lfoot -23.4887 17.0398
ltoes -54.7154
269
root -0.68307 18.7148 5.44905 2.25117 -3.46981 -1.6147
lowerback 5.20935 1.43199 0.409741
upperback 0.301223 1.93151 0.00691356
thorax -2.59583 0.957283 -0.364528
lowerneck -10.125 -4.4405 -2.94004
upperneck 34.1459 -6.98748 3.24831
head 13.3983 -3.0384 0.795738
rclavicle 1.45486e-014 -4.17448e-015
rhumerus -30.8481 14.1548 -80.0219
rradius 98.3321
rwrist 23.8404
rhand -2.49141 -49.2192
rfingers 7.12502
rthumb 23.202 -77.8416
lclavicle 1.45486e-014 -4.17448e-015
lhumerus -23.7303 -22.0409 91.2269
lradius 99.3047
lwrist -3.93659
lhand 24.3746 2.80026
lfingers 7.12502
lthumb 48.5863 24.7348
rfemur 0 0 0
rtibia 0
rfoot 0 0
rtoes 0
lfemur -4.97348 -3.78417 -12.6075
ltibia 21.5145
lfoot -23.426 17.072
ltoes -54.8284
270
root -0.686209 18.7148 5.45475 2.2667 -3.4834 -1.61218
lowerback 5.17723 1.39166 0.395296
upperback 0.297202 1.87794 0.0477852
thorax -2.58426 0.931033 -0.30974
lowerneck -10.1093 -4.10886 -2.51787
upperneck 34.2705 -6.56466 3.1267
head 13.4078 -2.81336 0.737475
rclavicle -5.8393e-015 -2.5842e-015
rhumerus -30.4223 15.271 -80.3049
rradius 99.6128
rwrist 24.4974
rhand -3.02437 -51.1569
rfingers 7.12502
rthumb 22.6906 -79.8429
lclavicle -5.8393e-015 -2.5842e-015
lhumerus -23.5695 -21.1828 90.08
lradius 100.797
lwrist -3.60738
lhand 23.4268 2.94554
lfingers 7.12502
lthumb 47.713 25.2912
rfemur 0 0 0
rtibia 0
rfoot 0 0
rtoes 0
lfemur -4.92633 -3.77424 -12.5951
ltibia 21.45
lfoot -23.44 17.0718
ltoes -54.826
271
root -0.688328 18.7148 5.46069 2.29401 -3.4684 -1.60693
lowerback 5.13662 1.38386 0.403869
upperback 0.311609 1.86889 0.0886566
thorax -2.54785 0.926805 -0.27056
lowerneck -10.0719 -3.85888 -2.23157
upperneck 34.2902 -6.2648 3.12752
head 13.3848 -2.64494 0.732984
rclavicle -1.48219e-014 4.17448e-015
rhumerus -30.1647 16.2563 -80.6988
rradius 100.865
rwrist 24.5818
rhand -5.98364 -51.667
rfingers 7.12502
rthumb 19.8481 -80.6735
lclavicle -1.48219e-014 4.17448e-015
lhumerus -23.563 -20.5755 89.091
lradius 102.079
lwrist -3.49897
lhand 20.8361 2.31162
lfingers 7.12502
lthumb 45.3132 25.6867
rfemur 0 0 0
rtibia 0
rfoot 0 0
rtoes 0
lfemur -4.91539 -3.79911 -12.5885
ltibia 21.4134
lfoot -23.4569 17.0595
ltoes -54.7536
272
root -0.690256 18.7156 5.45999 2.30002 -3.43924 -1.62209
lowerback 5.23631 1.39148 0.459933
upperback 0.32433 1.88358 0.11921
thorax -2.58972 0.933456 -0.274151
lowerneck -10.0291 -3.64067 -1.86792
upperneck 34.1311 -5.97352 2.99391
head 13.2756 -2.4901 0.660539
rclavicle 3.8763e-015 -3.27995e-015
rhumerus -30.1626 17.2507 -81.3865
rradius 102.089
rwrist 23.7901
rhand -9.95108 -51.5437
rfingers 7.12502
rthumb 16.0308 -80.9005
lclavicle 3.8763e-015 -3.27995e-015
lhumerus -23.7163 -20.1543 88.2951
lradius 103.111
lwrist -3.67729
lhand 17.0306 1.04772
lfingers 7.12502
lthumb 41.7595 25.7178
rfemur 0 0 0
rtibia 0
rfoot 0 0
rtoes 0
lfemur -4.9213 -3.84285 -12.5621
ltibia 21.3976
lfoot -23.4426 17.0742
ltoes -54.7149
273
root -0.69216 18.7165 5.45848 2.32467 -3.40142 -1.6395
lowerback 5.35657 1.39184 0.510547
upperback 0.337691 1.88871 0.156341
thorax -2.64291 0.935371 -0.267808
lowerneck -10.0752 -3.43195 -1.51816
upperneck 33.9235 -5.65138 2.74586
head 13.162 -2.33749 0.548009
rclavicle -1.44243e-014 -3.67752e-015
rhumerus -30.2772 17.6464 -82.045
rradius 103.292
rwrist 24.2999
rhand -11.3697 -51.8589
rfingers 7.12502
rthumb 14.6644 -81.3203
lclavicle -1.44243e-014 -3.67752e-015
lhumerus -23.9926 -19.7331 87.6994
lradius 103.892
lwrist -4.40291
lhand 12.8044 -0.729009
lfingers 7.12502
lthumb 37.7811 25.1294
rfemur 0 0 0
rtibia 0
rfoot 0 0
rtoes 0
lfemur -4.95671 -3.89472 -12.5353
ltibia 21.3931
lfoot -23.4514 17.0917
ltoes -54.7071
274
root -0.694374 18.7172 5.46279 2.34002 -3.35314 -1.63513
lowerback 5.4383 1.38816 0.536709
upperback 0.368213 1.88672 0.192081
thorax -2.65764 0.934203 -0.247323
lowerneck -10.2107 -3.27129 -1.34183
upperneck 33.7295 -5.41141 2.64652
head 13.0905 -2.2225 0.51024
rclavicle 2.38914e-014 -7.35503e-015
rhumerus -30.6991 17.8969 -82.8976
rradius 104.417
rwrist 25.2161
rhand -12.9292 -51.717
rfingers 7.12502
rthumb 13.1614 -81.2816
lclavicle 2.38914e-014 -7.35503e-015
lhumerus -24.4167 -19.2958 87.3071
lradius 104.403
lwrist -5.66715
lhand 8.44144 -2.92714
lfingers 7.12502
lthumb 33.6466 23.9344
rfemur 0 0 0
rtibia 0
rfoot 0 0
rtoes 0
lfemur -4.96743 -3.98253 -12.5391
ltibia 21.4002
lfoot -23.4708 17.1246
ltoes -54.7024
275
root -0.698056 18.7177 5.47088 2.33707 -3.30536 -1.6191
lowerback 5.50967 1.41656 0.538206
upperback 0.422489 1.9253 0.212012
thorax -2.64207 0.953598 -0.231685
lowerneck -10.3906 -3.16714 -1.17027
upperneck 33.4335 -5.26209 2.58494
head 12.9902 -2.14397 0.474496
rclavicle 2.02015e-014 8.74653e-015
rhumerus -31.294 17.851 -83.7748
rradius 105.339
rwrist 26.8269
rhand -13.7662 -51.6154
rfingers 7.12502
rthumb 12.3546 -81.2303
lclavicle 2.02015e-014 8.74653e-015
lhumerus -25.073 -19.0477 87.143
lradius 104.584
lwrist -7.14767
lhand 3.32534 -5.71581
lfingers 7.12502
lthumb 28.7714 22.087
rfemur 0 0 0
rtibia 0
rfoot 0 0
rtoes 0
lfemur -4.95406 -3.98147 -12.5428
ltibia 21.4223
lfoot -23.4455 17.1132
ltoes -54.7631
